<svg width="56" height="48" viewBox="0 0 56 48" fill="none" xmlns="http://www.w3.org/2000/svg">
<path d="M11.1915 17.3989C19.0967 21.9326 17.7504 35.1665 9.17561 35.1665C5.47733 35.1665 2.27672 32.3863 0.851571 28.832C-2.43952 20.6229 4.40443 13.505 11.1915 17.3989Z" fill="url(#paint0_linear_1612_305)"/>
<path d="M19.3106 19.0376C9.8257 19.0376 6.98573 2.9312 15.9968 0.283241C20.1023 -0.922795 24.7707 1.97103 26.2702 7.26097C27.9526 13.1902 24.6428 19.0376 19.3106 19.0376Z" fill="url(#paint1_linear_1612_305)"/>
<path d="M21.75 47.7074C23.0672 47.3433 25.405 47.1087 27.852 47.0748C30.4386 47.0369 33.1467 47.2223 34.8989 47.7074C39.6313 49.0257 46.0707 45.8362 44.6578 39.212C43.351 33.0881 38.6554 33.4369 37.545 27.6333C36.4262 21.7679 32.0783 18.9372 27.852 19.1585C23.9404 19.3638 20.1335 22.1846 19.0961 27.6347C17.9922 33.4422 13.3063 33.0901 12.0014 39.212C10.5833 45.8415 17.0363 49.0138 21.75 47.7074Z" fill="url(#paint2_linear_1612_305)"/>
<path d="M36.0037 19.0382C33.3208 19.0382 31.0167 17.4799 29.7363 15.0951C25.9301 8.00375 32.1813 -1.81333 39.3181 0.289092C48.3447 2.94437 45.4834 19.0382 36.0037 19.0382Z" fill="url(#paint3_linear_1612_305)"/>
<path d="M40.2909 29.8931C37.2453 22.4416 44.4642 13.3395 51.3586 16.2034C59.6633 19.6528 56.0006 34.5299 46.8692 34.5299C43.9387 34.5299 41.4484 32.7258 40.2909 29.8931Z" fill="url(#paint4_linear_1612_305)"/>
<defs>
<linearGradient id="paint0_linear_1612_305" x1="77.2991" y1="-16.6737" x2="-13.6003" y2="50.7976" gradientUnits="userSpaceOnUse">
<stop stop-color="#87A084"/>
<stop offset="1" stop-color="#B7E6B9"/>
</linearGradient>
<linearGradient id="paint1_linear_1612_305" x1="77.2991" y1="-16.6737" x2="-13.6003" y2="50.7976" gradientUnits="userSpaceOnUse">
<stop stop-color="#87A084"/>
<stop offset="1" stop-color="#B7E6B9"/>
</linearGradient>
<linearGradient id="paint2_linear_1612_305" x1="77.2991" y1="-16.6737" x2="-13.6003" y2="50.7976" gradientUnits="userSpaceOnUse">
<stop stop-color="#87A084"/>
<stop offset="1" stop-color="#B7E6B9"/>
</linearGradient>
<linearGradient id="paint3_linear_1612_305" x1="77.2991" y1="-16.6737" x2="-13.6003" y2="50.7976" gradientUnits="userSpaceOnUse">
<stop stop-color="#87A084"/>
<stop offset="1" stop-color="#B7E6B9"/>
</linearGradient>
<linearGradient id="paint4_linear_1612_305" x1="77.2991" y1="-16.6737" x2="-13.6003" y2="50.7976" gradientUnits="userSpaceOnUse">
<stop stop-color="#87A084"/>
<stop offset="1" stop-color="#B7E6B9"/>
</linearGradient>
</defs>
</svg>
