<svg width="225" height="196" viewBox="0 0 225 196" fill="none" xmlns="http://www.w3.org/2000/svg">
<path d="M120.932 60.6758L129.956 7.57969C130.698 3.21562 134.566 0 139.097 0C142.027 0 144.761 1.33984 146.519 3.63672L153.121 12.25H173.474C178.435 12.25 183.201 14.2023 186.717 17.6477L193.748 24.5H215.624C220.82 24.5 225 28.5961 225 33.6875V42.875C225 59.7953 211.015 73.5 193.748 73.5H181.248H174.997H166.677L164.684 85.1758L120.932 60.6758ZM162.497 98.0383V183.75C162.497 190.526 156.91 196 149.996 196H137.495C130.581 196 124.995 190.526 124.995 183.75V139.65C115.619 144.359 104.994 147 93.7431 147C82.4925 147 71.8669 144.359 62.4914 139.65V183.75C62.4914 190.526 56.9052 196 49.9908 196H37.4901C30.5757 196 24.9895 190.526 24.9895 183.75V95.6266C13.7389 91.4539 4.91028 82.1133 1.86325 70.1695L0.378796 64.2359C-1.30098 57.6898 2.76173 51.0289 9.48084 49.3828C16.1999 47.7367 22.9581 51.718 24.6379 58.3023L26.1614 64.2359C27.5287 69.6719 32.5289 73.5 38.2714 73.5H49.9908H56.2411H118.666L162.497 98.0383ZM181.248 30.625C181.248 29.0005 180.589 27.4426 179.417 26.294C178.245 25.1453 176.655 24.5 174.997 24.5C173.34 24.5 171.75 25.1453 170.578 26.294C169.406 27.4426 168.747 29.0005 168.747 30.625C168.747 32.2495 169.406 33.8074 170.578 34.956C171.75 36.1047 173.34 36.75 174.997 36.75C176.655 36.75 178.245 36.1047 179.417 34.956C180.589 33.8074 181.248 32.2495 181.248 30.625Z" fill="#87A084" fill-opacity="0.2"/>
</svg>
