<svg width="354" height="346" viewBox="0 0 354 346" fill="none" xmlns="http://www.w3.org/2000/svg">
<path d="M90.2116 93.5427C127.949 139.797 88.688 217.457 36.2248 197.318C13.5976 188.632 0.533088 164.136 0.146086 139.082C-0.745216 81.2189 57.8148 53.8221 90.2116 93.5427Z" fill="#87A084" fill-opacity="0.2"/>
<path d="M136.045 122.619C78.0135 100.343 98.3964 -4.69155 159.737 0.300274C187.682 2.57688 209.461 31.2142 206.234 67.0425C202.627 107.204 168.669 135.142 136.045 122.619Z" fill="#87A084" fill-opacity="0.2"/>
<path d="M83.7583 303.439C92.6711 304.309 107.524 308.367 122.575 313.907C138.489 319.751 154.624 327.243 164.207 334.321C190.071 353.487 236.946 349.131 243.831 305.358C250.192 264.889 220.645 255.991 227.457 217.94C234.362 179.491 214.397 151.992 188.02 143.418C163.606 135.485 133.702 143.771 114.578 174.619C94.2093 207.494 66.3653 194.338 44.0296 228.661C19.8118 265.818 51.856 300.347 83.7583 303.439Z" fill="#87A084" fill-opacity="0.2"/>
<path d="M238.177 161.828C221.762 155.527 211.317 140.599 209.075 123.027C202.412 70.7798 263.673 25.5069 302.409 55.108C351.411 92.524 296.176 184.092 238.177 161.828Z" fill="#87A084" fill-opacity="0.2"/>
<path d="M238.959 238.19C237.795 185.529 303.3 146.895 338.768 180.578C381.492 221.148 324.205 303.403 268.337 281.957C250.408 275.075 239.401 258.208 238.959 238.19Z" fill="#87A084" fill-opacity="0.2"/>
</svg>
