<svg width="79" height="74" viewBox="0 0 79 74" fill="none" xmlns="http://www.w3.org/2000/svg">
<path d="M20.219 20.1124C28.5548 29.9029 19.7884 46.4136 8.167 42.1765C3.15474 40.3491 0.275315 35.1592 0.208216 29.8419C0.0538144 17.5614 13.0631 11.7049 20.219 20.1124Z" fill="url(#paint0_linear_1681_114)"/>
<path d="M30.3632 26.2511C17.5084 21.5644 22.1079 -0.743165 35.7096 0.272743C41.9063 0.736087 46.7155 6.79874 45.9729 14.4054C45.1429 22.9321 37.5899 28.8859 30.3632 26.2511Z" fill="url(#paint1_linear_1681_114)"/>
<path d="M18.6307 64.6665C20.6069 64.8448 23.8983 65.6955 27.2325 66.8607C30.758 68.0897 34.331 69.6684 36.4513 71.1638C42.1736 75.2133 52.5739 74.2556 54.1338 64.9599C55.5748 56.3661 49.028 54.4986 50.5673 46.4175C52.1277 38.2521 47.7199 32.4298 41.8758 30.6286C36.4668 28.9622 29.8277 30.7421 25.563 37.3031C21.0205 44.2952 14.8545 41.5227 9.87469 48.8234C4.47531 56.7271 11.557 64.0329 18.6307 64.6665Z" fill="url(#paint2_linear_1681_114)"/>
<path d="M52.987 34.5004C49.3509 33.1747 47.0454 30.0138 46.5611 26.2859C45.1223 15.2014 58.7441 5.54887 67.3137 11.804C78.1545 19.7106 65.8347 39.1846 52.987 34.5004Z" fill="url(#paint3_linear_1681_114)"/>
<path d="M53.1034 50.7073C52.8845 39.5312 67.4427 31.2848 75.2843 38.4086C84.7303 46.989 71.9625 64.4879 59.5868 59.9759C55.6152 58.5278 53.1864 54.9558 53.1034 50.7073Z" fill="url(#paint4_linear_1681_114)"/>
<defs>
<linearGradient id="paint0_linear_1681_114" x1="127.687" y1="8.55592" x2="-30.0432" y2="54.1734" gradientUnits="userSpaceOnUse">
<stop stop-color="#87A084"/>
<stop offset="1" stop-color="#B7E6B9"/>
</linearGradient>
<linearGradient id="paint1_linear_1681_114" x1="127.687" y1="8.55592" x2="-30.0432" y2="54.1734" gradientUnits="userSpaceOnUse">
<stop stop-color="#87A084"/>
<stop offset="1" stop-color="#B7E6B9"/>
</linearGradient>
<linearGradient id="paint2_linear_1681_114" x1="127.687" y1="8.55592" x2="-30.0432" y2="54.1734" gradientUnits="userSpaceOnUse">
<stop stop-color="#87A084"/>
<stop offset="1" stop-color="#B7E6B9"/>
</linearGradient>
<linearGradient id="paint3_linear_1681_114" x1="127.687" y1="8.55592" x2="-30.0432" y2="54.1734" gradientUnits="userSpaceOnUse">
<stop stop-color="#87A084"/>
<stop offset="1" stop-color="#B7E6B9"/>
</linearGradient>
<linearGradient id="paint4_linear_1681_114" x1="127.687" y1="8.55592" x2="-30.0432" y2="54.1734" gradientUnits="userSpaceOnUse">
<stop stop-color="#87A084"/>
<stop offset="1" stop-color="#B7E6B9"/>
</linearGradient>
</defs>
</svg>
